<svg xmlns="http://www.w3.org/2000/svg" width="1200" height="420"><defs><linearGradient id="prefix__route-grad-dark" x1="600" y1="78" x2="600" y2="360" gradientUnits="userSpaceOnUse"><stop offset="0%" stop-color="#58A6FF" stop-opacity=".1"/><stop offset="100%" stop-color="#58A6FF" stop-opacity=".5"/></linearGradient><clipPath id="prefix__panel-clip-dark"><rect x="12" y="12" width="1176" height="396" rx="16"/></clipPath><pattern id="prefix__grid-dark" width="40" height="40" patternUnits="userSpaceOnUse"><path d="M40 0H0v40" fill="none" stroke="#21262D" stroke-width=".75"/></pattern><style>@media (prefers-reduced-motion:reduce){.prefix__status-pulse{animation:none}}</style></defs><path fill="#0D1117" d="M0 0h1200v420H0z"/><rect x="12" y="12" width="1176" height="396" rx="16" fill="#161B22" stroke="#30363D" stroke-width="1.5"/><rect x="12" y="12" width="1176" height="396" rx="16" fill="url(#prefix__grid-dark)" clip-path="url(#prefix__panel-clip-dark)" opacity=".7"/><rect x="12" y="12" width="1176" height="48" rx="16" fill="#58A6FF" opacity=".08"/><path fill="#58A6FF" opacity=".08" d="M12 44h1176v16H12z"/><path stroke="#58A6FF" stroke-width="1.5" opacity=".3" d="M12 60h1200"/><text x="48" y="42" font-family="-apple-system, BlinkMacSystemFont, 'Segoe UI', sans-serif" font-size="13" font-weight="700" fill="#58A6FF" letter-spacing="4" style="animation:telemetry-sweep 8s linear infinite">PRODUCT FLIGHT DECK</text><text x="1152" y="42" font-family="-apple-system, BlinkMacSystemFont, 'Segoe UI', sans-serif" font-size="13" font-weight="600" fill="#A0A8B2" letter-spacing="1.5" text-anchor="end">TASHKENT · 41°N</text><path d="M600 78c0 62-260 142-260 222M600 78v222M600 78c0 62 260 142 260 222" fill="none" stroke="#58A6FF" stroke-width="1.5" stroke-dasharray="6 4" opacity=".5"/><circle cx="600" cy="78" r="5" fill="#58A6FF" class="prefix__status-pulse"/><circle cx="600" cy="78" r="3" fill="#0D1117"/><text x="600" y="130" font-family="-apple-system, BlinkMacSystemFont, 'Segoe UI', sans-serif" font-size="56" font-weight="800" fill="#F0F6FC" text-anchor="middle" letter-spacing="-1">SHAHBOZ MUNIROV</text><text x="600" y="165" font-family="-apple-system, BlinkMacSystemFont, 'Segoe UI', sans-serif" font-size="18" font-weight="500" fill="#A0A8B2" text-anchor="middle" letter-spacing="3">SOFTWARE ENGINEER / PRODUCT ENGINEER</text><path stroke="#30363D" opacity=".8" d="M480 185h240"/><text x="600" y="220" font-family="-apple-system, BlinkMacSystemFont, 'Segoe UI', sans-serif" font-size="22" font-weight="700" fill="#58A6FF" text-anchor="middle" letter-spacing="6">BUILD · CONNECT · OPERATE</text><circle cx="218" cy="274" r="4" fill="#58A6FF" class="prefix__status-pulse"/><rect x="200" y="282" width="260" height="80" rx="10" fill="#161B22" stroke="#30363D" stroke-width="1.5"/><text x="330" y="317" font-family="-apple-system, BlinkMacSystemFont, 'Segoe UI', sans-serif" font-size="18" font-weight="700" fill="#F0F6FC" text-anchor="middle" letter-spacing="0">MOBILE + WEB</text><text x="330" y="344" font-family="-apple-system, BlinkMacSystemFont, 'Segoe UI', sans-serif" font-size="18" font-weight="400" fill="#A0A8B2" text-anchor="middle" letter-spacing="0">PRODUCT SURFACES</text><circle cx="518" cy="274" r="4" fill="#3FB950" class="prefix__status-pulse"/><rect x="500" y="282" width="260" height="80" rx="10" fill="#161B22" stroke="#30363D" stroke-width="1.5"/><text x="630" y="317" font-family="-apple-system, BlinkMacSystemFont, 'Segoe UI', sans-serif" font-size="18" font-weight="700" fill="#F0F6FC" text-anchor="middle" letter-spacing="0">BACKEND + INTEGRATIONS</text><text x="630" y="344" font-family="-apple-system, BlinkMacSystemFont, 'Segoe UI', sans-serif" font-size="18" font-weight="400" fill="#A0A8B2" text-anchor="middle" letter-spacing="0">APIs + DATA</text><circle cx="818" cy="274" r="4" fill="#58A6FF" class="prefix__status-pulse"/><rect x="800" y="282" width="260" height="80" rx="10" fill="#161B22" stroke="#30363D" stroke-width="1.5"/><text x="930" y="317" font-family="-apple-system, BlinkMacSystemFont, 'Segoe UI', sans-serif" font-size="18" font-weight="700" fill="#F0F6FC" text-anchor="middle" letter-spacing="0">DELIVERY SYSTEMS</text><text x="930" y="344" font-family="-apple-system, BlinkMacSystemFont, 'Segoe UI', sans-serif" font-size="18" font-weight="400" fill="#A0A8B2" text-anchor="middle" letter-spacing="0">CI/CD + INFRA</text><style>@keyframes telemetry-sweep{0%{transform:translateX(-200px)}to{transform:translateX(1200px)}}@keyframes status-pulse{0%,to{opacity:1}50%{opacity:.3}}.prefix__status-pulse{animation:status-pulse 3s ease-in-out infinite}</style></svg>